# Blender 3.6.0
# www.blender.org
mtllib house_demo.mtl
o Cube
v 0.900000 -0.039114 -0.900000
v 0.900000 0.060887 -1.000000
v 1.000000 0.060887 -0.900000
v 1.000000 0.060887 0.900000
v 0.900000 0.060887 1.000000
v 0.900000 -0.039114 0.900000
v -1.000000 0.060887 -0.900000
v -0.900000 0.060887 -1.000000
v -0.900000 -0.039114 -0.900000
v -1.000000 0.060887 0.900000
v -0.900000 -0.039114 0.900000
v -0.900000 0.060887 1.000000
v 1.000000 1.402328 -0.900000
v 0.900000 1.402328 -1.000000
v -1.000000 1.402328 0.900000
v -0.900000 1.402328 1.000000
v 0.900000 1.402328 1.000000
v 1.000000 1.402328 0.900000
v -0.900000 1.402328 -1.000000
v -1.000000 1.402328 -0.900000
vn -0.0000 -0.0000 1.0000
vn 1.0000 -0.0000 -0.0000
vn -0.0000 -1.0000 -0.0000
vn -1.0000 -0.0000 -0.0000
vn 0.5774 -0.5774 -0.5774
vn 0.5774 -0.5774 0.5774
vn -0.5774 -0.5774 -0.5774
vn -0.5774 -0.5774 0.5774
vn -0.7071 -0.7071 -0.0000
vn -0.0000 -0.7071 -0.7071
vn 0.7071 -0.0000 -0.7071
vn 0.7071 -0.0000 0.7071
vn -0.7071 -0.0000 -0.7071
vn -0.0000 -0.7071 0.7071
vn 0.7071 -0.7071 -0.0000
vn -0.7071 -0.0000 0.7071
vn -0.0000 -0.0000 -1.0000
vt 0.387500 0.762500
vt 0.555180 0.762500
vt 0.555180 0.987500
vt 0.387500 0.987500
vt 0.387500 0.512500
vt 0.555180 0.512500
vt 0.555180 0.737500
vt 0.387500 0.737500
vt 0.137500 0.512500
vt 0.362500 0.512500
vt 0.362500 0.737500
vt 0.137500 0.737500
vt 0.387500 0.012500
vt 0.555180 0.012500
vt 0.555180 0.237500
vt 0.387500 0.237500
vt 0.362500 0.500000
vt 0.375000 0.512500
vt 0.375000 0.737500
vt 0.362500 0.750000
vt 0.125000 0.512500
vt 0.137500 0.500000
vt 0.125000 0.737500
vt 0.137500 0.750000
vt 0.387500 0.487500
vt 0.555180 0.487500
vt 0.555180 0.262500
vt 0.387500 0.262500
vt 0.387500 0.000000
vt 0.555180 0.000000
s 0
usemtl Material
f 5/1/1 17/2/1 16/3/1 12/4/1
f 3/5/2 13/6/2 18/7/2 4/8/2
f 9/9/3 1/10/3 6/11/3 11/12/3
f 10/13/4 15/14/4 20/15/4 7/16/4
f 1/10/5 2/17/5 3/18/5
f 4/19/6 5/20/6 6/11/6
f 7/21/7 8/22/7 9/9/7
f 10/23/8 11/12/8 12/24/8
f 9/9/9 11/12/9 10/23/9 7/21/9
f 1/10/10 9/9/10 8/22/10 2/17/10
f 13/6/11 3/5/11 2/25/11 14/26/11
f 17/2/12 5/1/12 4/8/12 18/7/12
f 19/27/13 8/28/13 7/16/13 20/15/13
f 11/12/14 6/11/14 5/20/14 12/24/14
f 6/11/15 1/10/15 3/5/15 4/8/15
f 12/29/16 16/30/16 15/14/16 10/13/16
f 8/28/17 19/27/17 14/26/17 2/25/17
o Cube.001
v -0.006456 1.893292 0.006456
v -0.006456 1.893292 -0.006456
v 0.006456 1.893292 0.006456
v 0.006456 1.893292 -0.006456
v -1.086885 1.464485 1.181396
v -1.181396 1.464485 1.086885
v -1.116686 1.488102 1.116686
v -1.123053 1.464485 1.174202
v -1.153715 1.464485 1.153715
v -1.174202 1.464485 1.123053
v -1.181396 1.464485 -1.181396
v -1.181396 1.464485 -1.181396
v -1.116686 1.488102 -1.116686
v -1.181396 1.464485 -1.181396
v -1.181396 1.464485 -1.181396
v -1.181396 1.464485 -1.181396
v 1.181396 1.464485 1.181396
v 1.181396 1.464485 1.181396
v 1.116686 1.488102 1.116686
v 1.181396 1.464485 1.181396
v 1.181396 1.464485 1.181396
v 1.181396 1.464485 1.181396
v 1.181396 1.464485 -1.181396
v 1.181396 1.464485 -1.181396
v 1.116686 1.488102 -1.116686
v 1.181396 1.464485 -1.181396
v 1.181396 1.464485 -1.181396
v 1.181396 1.464485 -1.181396
v -1.086885 1.313441 1.181396
v -1.086885 1.218929 1.086885
v -1.181396 1.313441 1.086885
v -1.086885 1.277272 1.174202
v -1.086885 1.246610 1.153715
v -1.123053 1.313440 1.174202
v -1.123959 1.276366 1.165519
v -1.122078 1.251416 1.148908
v -1.141451 1.258874 1.141451
v -1.123053 1.226123 1.086885
v -1.153715 1.246610 1.086885
v -1.086885 1.226123 1.123053
v -1.123959 1.234806 1.123959
v -1.148908 1.251416 1.122078
v -1.174202 1.313440 1.123053
v -1.153715 1.313440 1.153715
v -1.174202 1.277272 1.086885
v -1.165519 1.276366 1.123959
v -1.148908 1.278247 1.148908
v -1.086885 1.313441 -1.181396
v -1.181396 1.313441 -1.086885
v -1.086885 1.218929 -1.086885
v -1.123053 1.313440 -1.174202
v -1.153715 1.313440 -1.153715
v -1.086885 1.277272 -1.174202
v -1.123959 1.276366 -1.165519
v -1.148908 1.278247 -1.148908
v -1.141451 1.258874 -1.141451
v -1.174202 1.277272 -1.086885
v -1.153715 1.246610 -1.086885
v -1.174202 1.313440 -1.123053
v -1.165519 1.276366 -1.123959
v -1.148908 1.251416 -1.122078
v -1.086885 1.226123 -1.123053
v -1.086885 1.246610 -1.153715
v -1.123053 1.226123 -1.086885
v -1.123959 1.234806 -1.123959
v -1.122078 1.251416 -1.148908
v 1.181396 1.313441 1.086885
v 1.086885 1.218929 1.086885
v 1.086885 1.313441 1.181396
v 1.174202 1.277272 1.086885
v 1.153715 1.246610 1.086885
v 1.174202 1.313440 1.123053
v 1.165519 1.276366 1.123959
v 1.148908 1.251416 1.122078
v 1.141451 1.258874 1.141451
v 1.086885 1.226123 1.123053
v 1.086885 1.246610 1.153715
v 1.123053 1.226123 1.086885
v 1.123959 1.234806 1.123959
v 1.122078 1.251416 1.148908
v 1.123053 1.313440 1.174202
v 1.153715 1.313440 1.153715
v 1.086885 1.277272 1.174202
v 1.123959 1.276366 1.165519
v 1.148908 1.278247 1.148908
v 1.086885 1.313441 -1.181396
v 1.086885 1.218929 -1.086885
v 1.181396 1.313441 -1.086885
v 1.086885 1.277272 -1.174202
v 1.086885 1.246610 -1.153715
v 1.123053 1.313440 -1.174202
v 1.123959 1.276366 -1.165519
v 1.122078 1.251416 -1.148908
v 1.141451 1.258874 -1.141451
v 1.123053 1.226123 -1.086885
v 1.153715 1.246610 -1.086885
v 1.086885 1.226123 -1.123053
v 1.123959 1.234806 -1.123959
v 1.148908 1.251416 -1.122078
v 1.174202 1.313440 -1.123053
v 1.153715 1.313440 -1.153715
v 1.174202 1.277272 -1.086885
v 1.165519 1.276366 -1.123959
v 1.148908 1.278247 -1.148908
vn -0.0000 -0.0000 -1.0000
vn -0.0000 -0.0000 1.0000
vn -0.0000 1.0000 -0.0000
vn -0.0000 0.9394 -0.3428
vn -0.3428 0.9394 -0.0000
vn -0.0002 -1.0000 0.0002
vn -1.0000 -0.0000 -0.0000
vn 0.3428 0.9394 -0.0000
vn -0.0000 0.9394 0.3428
vn 0.0739 -0.9254 -0.3718
vn 0.2321 -0.9085 -0.3474
vn 0.3474 -0.9086 -0.2321
vn 0.3718 -0.9254 -0.0740
vn 0.2049 0.2049 -0.9571
vn 0.1818 0.5500 -0.8152
vn 0.5500 0.1818 -0.8152
vn 0.4931 0.4931 -0.7167
vn 0.2049 0.9571 -0.2049
vn 0.5500 0.8152 -0.1818
vn 0.1818 0.8152 -0.5500
vn 0.4931 0.7167 -0.4931
vn 0.9571 0.2049 -0.2049
vn 0.8152 0.1818 -0.5500
vn 0.8152 0.5500 -0.1818
vn 0.7167 0.4931 -0.4931
vn 0.2049 0.2049 0.9571
vn 0.5500 0.1818 0.8152
vn 0.1818 0.5500 0.8152
vn 0.4931 0.4931 0.7167
vn 0.9571 0.2049 0.2049
vn 0.8152 0.5500 0.1818
vn 0.8152 0.1818 0.5500
vn 0.7167 0.4931 0.4931
vn 0.2049 0.9571 0.2049
vn 0.1818 0.8152 0.5500
vn 0.5500 0.8152 0.1818
vn 0.4931 0.7167 0.4931
vn -0.9571 0.2049 -0.2049
vn -0.8152 0.5500 -0.1818
vn -0.8152 0.1818 -0.5500
vn -0.7167 0.4931 -0.4931
vn -0.2049 0.9571 -0.2049
vn -0.1818 0.8152 -0.5500
vn -0.5500 0.8152 -0.1818
vn -0.4931 0.7167 -0.4931
vn -0.2049 0.2049 -0.9571
vn -0.5500 0.1818 -0.8152
vn -0.1818 0.5500 -0.8152
vn -0.4931 0.4931 -0.7167
vn -0.2049 0.2049 0.9571
vn -0.1818 0.5500 0.8152
vn -0.5500 0.1818 0.8152
vn -0.4931 0.4931 0.7167
vn -0.2049 0.9571 0.2049
vn -0.5500 0.8152 0.1818
vn -0.1818 0.8152 0.5500
vn -0.4931 0.7167 0.4931
vn -0.9571 0.2049 0.2049
vn -0.8152 0.1818 0.5500
vn -0.8152 0.5500 0.1818
vn -0.7167 0.4931 0.4931
vn 0.1951 -0.0000 -0.9808
vn 0.5556 -0.0000 -0.8315
vn 0.8315 -0.0000 -0.5556
vn 0.9808 -0.0000 -0.1951
vn 0.9736 0.1212 0.1936
vn 0.8058 0.2464 0.5384
vn 0.5384 0.2464 0.8058
vn 0.1937 0.1212 0.9736
vn -0.9736 0.1212 -0.1936
vn -0.8058 0.2464 -0.5384
vn -0.5384 0.2464 -0.8058
vn -0.1937 0.1212 -0.9736
vn -0.1937 0.1212 0.9736
vn -0.5384 0.2464 0.8058
vn -0.8058 0.2464 0.5384
vn -0.9736 0.1212 0.1936
vn 0.9808 0.1951 -0.0000
vn 0.8315 0.5556 -0.0000
vn 0.5556 0.8315 -0.0000
vn 0.1951 0.9808 -0.0000
vn -0.0000 0.1951 -0.9808
vn -0.0000 0.5556 -0.8315
vn -0.0000 0.8315 -0.5556
vn -0.0000 0.9808 -0.1951
vn -0.9808 0.1951 -0.0000
vn -0.8315 0.5556 -0.0000
vn -0.5556 0.8315 -0.0000
vn -0.1951 0.9808 -0.0000
vn -0.0000 0.1951 0.9808
vn -0.0000 0.5556 0.8315
vn -0.0000 0.8315 0.5556
vn -0.0000 0.9808 0.1951
vn 1.0000 -0.0000 -0.0000
vt 0.000000 0.000000
vt 0.375000 0.250000
vt 0.388769 0.250000
vt 0.625000 0.250000
vt 0.625000 0.500000
vt 0.388769 0.500000
vt 0.375000 0.500000
vt 0.375000 0.010000
vt 0.388769 0.000000
vt 0.625000 0.000000
vt 0.388769 0.250000
vt 0.875000 0.500000
vt 0.875000 0.750000
vt 0.625000 0.750000
vt 0.125000 0.500000
vt 0.375000 0.750000
vt 0.135000 0.750000
vt 0.131847 0.743153
vt 0.125000 0.740000
vt 0.388769 0.500000
vt 0.388769 0.750000
vt 0.388769 0.750000
vt 0.625000 1.000000
vt 0.388769 1.000000
vt 0.375000 0.990000
vt 0.384427 0.000000
vt 0.385955 -0.006520
vt 0.380522 0.000000
vt 0.375000 0.006173
s 0
usemtl Roof
f 49/31/18 25/31/18 37/31/18 89/31/18
f 106/31/19 44/31/19 31/31/19 68/31/19
f 70/31/20 50/31/20 88/31/20 107/31/20
f 31/32/21 33/33/21 22/34/21 24/35/21 45/36/21 44/37/21
f 26/38/22 27/39/22 21/40/22 22/34/22 33/41/22 32/32/22
f 24/35/20 22/42/20 21/43/20 23/44/20
f 32/45/23 36/45/23 35/45/23 34/45/23 31/45/23 44/37/23 48/37/23 47/37/23 46/37/23 43/37/23 38/46/23 42/46/23 41/46/23 40/46/23 37/46/23 25/47/23 27/48/23 26/49/23
f 87/31/24 38/31/24 43/31/24 108/31/24
f 43/37/25 45/50/25 24/35/25 23/44/25 39/51/25 38/46/25
f 37/46/26 39/52/26 23/44/26 21/53/26 27/54/26 25/55/26
f 25/56/27 28/57/27 27/39/27
f 28/57/28 29/58/28 27/39/28
f 29/58/29 30/59/29 27/39/29
f 30/59/30 26/38/30 27/39/30
f 31/31/20 34/31/20 33/31/20
f 34/31/20 35/31/20 33/31/20
f 35/31/20 36/31/20 33/31/20
f 36/31/20 32/31/20 33/31/20
f 37/31/20 40/31/20 39/31/20
f 40/31/20 41/31/20 39/31/20
f 41/31/20 42/31/20 39/31/20
f 42/31/20 38/31/20 39/31/20
f 43/31/20 46/31/20 45/31/20
f 46/31/20 47/31/20 45/31/20
f 47/31/20 48/31/20 45/31/20
f 48/31/20 44/31/20 45/31/20
f 49/31/31 52/31/31 55/31/31 54/31/31
f 52/31/32 53/31/32 56/31/32 55/31/32
f 54/31/33 55/31/33 67/31/33 64/31/33
f 55/31/34 56/31/34 57/31/34 67/31/34
f 50/31/35 58/31/35 61/31/35 60/31/35
f 58/31/36 59/31/36 62/31/36 61/31/36
f 60/31/37 61/31/37 56/31/37 53/31/37
f 61/31/38 62/31/38 57/31/38 56/31/38
f 51/31/39 63/31/39 66/31/39 65/31/39
f 63/31/40 64/31/40 67/31/40 66/31/40
f 65/31/41 66/31/41 62/31/41 59/31/41
f 66/31/42 67/31/42 57/31/42 62/31/42
f 68/31/43 71/31/43 74/31/43 73/31/43
f 71/31/44 72/31/44 75/31/44 74/31/44
f 73/31/45 74/31/45 86/31/45 83/31/45
f 74/31/46 75/31/46 76/31/46 86/31/46
f 69/31/47 77/31/47 80/31/47 79/31/47
f 77/31/48 78/31/48 81/31/48 80/31/48
f 79/31/49 80/31/49 75/31/49 72/31/49
f 80/31/50 81/31/50 76/31/50 75/31/50
f 70/31/51 82/31/51 85/31/51 84/31/51
f 82/31/52 83/31/52 86/31/52 85/31/52
f 84/31/53 85/31/53 81/31/53 78/31/53
f 85/31/54 86/31/54 76/31/54 81/31/54
f 87/31/55 90/31/55 93/31/55 92/31/55
f 90/31/56 91/31/56 94/31/56 93/31/56
f 92/31/57 93/31/57 105/31/57 102/31/57
f 93/31/58 94/31/58 95/31/58 105/31/58
f 88/31/59 96/31/59 99/31/59 98/31/59
f 96/31/60 97/31/60 100/31/60 99/31/60
f 98/31/61 99/31/61 94/31/61 91/31/61
f 99/31/62 100/31/62 95/31/62 94/31/62
f 89/31/63 101/31/63 104/31/63 103/31/63
f 101/31/64 102/31/64 105/31/64 104/31/64
f 103/31/65 104/31/65 100/31/65 97/31/65
f 104/31/66 105/31/66 95/31/66 100/31/66
f 106/31/67 109/31/67 112/31/67 111/31/67
f 109/31/68 110/31/68 113/31/68 112/31/68
f 111/31/69 112/31/69 124/31/69 121/31/69
f 112/31/70 113/31/70 114/31/70 124/31/70
f 107/31/71 115/31/71 118/31/71 117/31/71
f 115/31/72 116/31/72 119/31/72 118/31/72
f 117/31/73 118/31/73 113/31/73 110/31/73
f 118/31/74 119/31/74 114/31/74 113/31/74
f 108/31/75 120/31/75 123/31/75 122/31/75
f 120/31/76 121/31/76 124/31/76 123/31/76
f 122/31/77 123/31/77 119/31/77 116/31/77
f 123/31/78 124/31/78 114/31/78 119/31/78
f 25/31/79 49/31/79 54/31/79 28/31/79
f 28/31/80 54/31/80 64/31/80 29/31/80
f 29/31/81 64/31/81 63/31/81 30/31/81
f 30/31/82 63/31/82 51/31/82 26/31/82
f 31/31/83 69/31/83 79/31/83 34/31/83
f 34/31/84 79/31/84 72/31/84 35/31/84
f 35/31/85 72/31/85 71/31/85 36/31/85
f 36/31/86 71/31/86 68/31/86 32/31/86
f 37/31/87 87/31/87 92/31/87 40/31/87
f 40/31/88 92/31/88 102/31/88 41/31/88
f 41/31/89 102/31/89 101/31/89 42/31/89
f 42/31/90 101/31/90 89/31/90 38/31/90
f 43/31/91 106/31/91 111/31/91 46/31/91
f 46/31/92 111/31/92 121/31/92 47/31/92
f 47/31/93 121/31/93 120/31/93 48/31/93
f 48/31/94 120/31/94 108/31/94 44/31/94
f 69/31/95 51/31/95 65/31/95 77/31/95
f 77/31/96 65/31/96 59/31/96 78/31/96
f 78/31/97 59/31/97 58/31/97 84/31/97
f 84/31/98 58/31/98 50/31/98 70/31/98
f 49/31/99 89/31/99 103/31/99 52/31/99
f 52/31/100 103/31/100 97/31/100 53/31/100
f 53/31/101 97/31/101 96/31/101 60/31/101
f 60/31/102 96/31/102 88/31/102 50/31/102
f 87/31/103 108/31/103 122/31/103 90/31/103
f 90/31/104 122/31/104 116/31/104 91/31/104
f 91/31/105 116/31/105 115/31/105 98/31/105
f 98/31/106 115/31/106 107/31/106 88/31/106
f 106/31/107 68/31/107 73/31/107 109/31/107
f 109/31/108 73/31/108 83/31/108 110/31/108
f 110/31/109 83/31/109 82/31/109 117/31/109
f 117/31/110 82/31/110 70/31/110 107/31/110
f 69/31/111 32/31/111 26/31/111 51/31/111
